<svg xmlns="http://www.w3.org/2000/svg" xmlns:svg="http://www.w3.org/2000/svg" xmlns:xlink="http://www.w3.org/1999/xlink" version="1.0" height="946pt" width="1146pt" viewBox="25 202 1154 952" ><defs><style type="text/css">
            @font-face {
                font-family: 'noto_regular';
                src: url('https://app.creately.com/diagram/assets/fonts/noto/noto-regular.woff') format('woff'),
                     url('https://app.creately.com/diagram/assets/fonts/noto/noto-regular.woff2') format('woff2');
                font-weight: normal;
                font-style: normal;
            }
        p {
            margin: 0;
        }
        </style></defs><defs><style>
            span{ display: inline-block; }
        </style></defs><g id="63hxjlaqal"><g transform="translate(565 295)"><rect x="0" y="0" width="112.00000548362732" height="52" fill="rgba(255,241,0,1)" stroke="#5e5ca7" stroke-width="1.5" stroke-linecap="round" stroke-linejoin="round"/></g><g transform="translate(602.0000027418137, 311.5) rotate(0, 19, 9.5)" width="38" height="19"><text text-decoration="none" x="3.5" fill="rgb(0, 0, 0)" font-weight="bold" font-size="10pt" font-family="Arial"  y="17">CAFE</text><text text-decoration="none" x="34.5" fill="#4b4b4b" font-size="10pt" font-family="noto_regular"  y="17"></text></g></g><g id="3t5c8i5djn"><g><path d="M 620,345 L 620,605 L 620,750" fill="none" stroke="#5e5ca7" stroke-width="1.5" stroke-linecap="round" stroke-linejoin="round"/></g></g><g id="18guqh4e5a"><g transform="translate(570 530)"><rect x="0" y="0" width="102" height="52" fill="rgba(255,241,0,1)" stroke="#5e5ca7" stroke-width="1.5" stroke-linecap="round" stroke-linejoin="round"/></g><g transform="translate(579.5, 546.5) rotate(0, 41.5, 9.5)" width="83" height="19"><text text-decoration="none" x="5" fill="rgb(0, 0, 0)" font-weight="bold" font-size="10pt" font-family="Arial"  y="17">MANAGERS</text><text text-decoration="none" x="78" fill="#4b4b4b" font-size="10pt" font-family="noto_regular"  y="17"></text></g></g><g id="9znppenibc"><g transform="translate(570 410)"><path d="M 126,31.5 L 63.5,62.9 L 1,31.5 L 63.5,0.3 Z" fill="rgb(0, 255, 0)" stroke="rgb(94, 92, 167)" stroke-width="1.5" vector-effect="non-scaling-stroke"/></g><g transform="translate(592.7885220125786, 420.1677215189873) rotate(0, 0, 0)" width="41" height="19"><text text-decoration="none" x="0" fill="#000000" font-weight="bold" font-size="11pt" font-family="Arial"  y="17">HAS&#160;</text><text text-decoration="none" x="33" fill="#4b4b4b" font-size="10pt" font-family="noto_regular"  y="17"></text></g></g><g id="20o007i7p2"><g><path d="M 620,530 L 620,460" fill="none" stroke="#5e5ca7" stroke-width="1.5" stroke-linecap="round" stroke-linejoin="round"/></g></g><g id="78le9j602k"><g transform="translate(175 765)"><rect x="0" y="0" width="102" height="52" fill="rgba(255,241,0,1)" stroke="#5e5ca7" stroke-width="1.5" stroke-linecap="round" stroke-linejoin="round"/></g><g transform="translate(185, 781.5) rotate(0, 41, 9.5)" width="82" height="19"><text text-decoration="none" x="5.5" fill="rgb(0, 0, 0)" font-weight="bold" font-size="10pt" font-family="Arial"  y="17">CUSTOMER</text><text text-decoration="none" x="76.5" fill="#4b4b4b" font-size="10pt" font-family="noto_regular"  y="17"></text></g></g><g id="1ysdxhi8b2"><g transform="translate(570 655)"><path d="M 126,31.5 L 63.5,62.9 L 1,31.5 L 63.5,0.3 Z" fill="rgb(0, 255, 0)" stroke="rgb(94, 92, 167)" stroke-width="1.5" vector-effect="non-scaling-stroke"/></g><g transform="translate(585.6819968553459, 665.1677215189874) rotate(0, 0, 0)" width="59" height="19"><text text-decoration="none" x="0" fill="#000000" font-weight="bold" font-size="11pt" font-family="Arial"  y="17">TAKES&#160;</text><text text-decoration="none" x="49" fill="#4b4b4b" font-size="10pt" font-family="noto_regular"  y="17"></text></g></g><g id="287xpjr1w3"><g><path d="M 620,580 L 620,655" fill="none" stroke="#5e5ca7" stroke-width="1.5" stroke-linecap="round" stroke-linejoin="round"/></g></g><g id="1sggop06c3"><g transform="translate(570 780)"><rect x="0" y="0" width="102" height="52" fill="rgba(255,255,0,1)" stroke="#5e5ca7" stroke-width="1.5" stroke-linecap="round" stroke-linejoin="round"/></g><g transform="translate(595.5, 796.5) rotate(0, 25.5, 9.5)" width="51" height="19"><text text-decoration="none" x="3" fill="rgb(0, 0, 0)" font-weight="bold" font-size="10pt" font-family="Arial"  y="17">ORDER</text><text text-decoration="none" x="48" fill="#4b4b4b" font-size="10pt" font-family="noto_regular"  y="17"></text></g></g><g id="2yckgjw2fm"><g><path d="M 620,780 L 620,705" fill="none" stroke="#5e5ca7" stroke-width="1.5" stroke-linecap="round" stroke-linejoin="round"/></g></g><g id="44x47effvx"><g transform="translate(400 765)"><path d="M 126,31.5 L 63.5,62.9 L 1,31.5 L 63.5,0.3 Z" fill="rgb(0, 255, 0)" stroke="rgb(94, 92, 167)" stroke-width="1.5" vector-effect="non-scaling-stroke"/></g><g transform="translate(411.9897798742138, 775.1677215189874) rotate(0, 0, 0)" width="70" height="19"><text text-decoration="none" x="0" fill="#000000" font-weight="bold" font-size="11pt" font-family="Arial"  y="17">PLACES&#160;</text><text text-decoration="none" x="57" fill="#4b4b4b" font-size="10pt" font-family="noto_regular"  y="17"></text></g></g><g id="au8esom779"><g><path d="M 275,790 L 400,790" fill="none" stroke="#5e5ca7" stroke-width="1.5" stroke-linecap="round" stroke-linejoin="round"/></g></g><g id="2llq7w5ddw"><g><path d="M 570,805 L 500,790" fill="none" stroke="#5e5ca7" stroke-width="1.5" stroke-linecap="round" stroke-linejoin="round"/></g></g><g id="9d7jlldhes"><g transform="translate(940 780)"><rect x="0" y="0" width="102" height="52" fill="rgba(255,241,0,1)" stroke="#5e5ca7" stroke-width="1.5" stroke-linecap="round" stroke-linejoin="round"/></g><g transform="translate(971.5, 796.5) rotate(0, 19.5, 9.5)" width="39" height="19"><text text-decoration="none" x="3.5" fill="rgb(0, 0, 0)" font-weight="bold" font-size="10pt" font-family="Arial"  y="17">CHEF</text><text text-decoration="none" x="35.5" fill="#4b4b4b" font-size="10pt" font-family="noto_regular"  y="17"></text></g></g><g id="9go7msuazw"><g transform="translate(940 520)"><path d="M 126,37.67647022008896 L 63.5,75.23333259820937 L 1,37.67647022008896 L 63.5,0.3588235259056091 Z" fill="rgb(0, 255, 0)" stroke="rgb(94, 92, 167)" stroke-width="1.5" vector-effect="non-scaling-stroke"/></g><g transform="translate(956.9127358490566, 534.1621835443038) rotate(0, 0, 0)" width="56" height="19"><text text-decoration="none" x="0" fill="#000000" font-weight="bold" font-size="11pt" font-family="Arial"  y="17">TELLS&#160;</text><text text-decoration="none" x="45" fill="#4b4b4b" font-size="10pt" font-family="noto_regular"  y="17"></text></g></g><g id="2lymnhml9o"><g><path d="M 670,555 L 940,550" fill="none" stroke="#5e5ca7" stroke-width="1.5" stroke-linecap="round" stroke-linejoin="round"/></g></g><g id="70w0d2aaze"><g><path d="M 990,780 L 990,580" fill="none" stroke="#5e5ca7" stroke-width="1.5" stroke-linecap="round" stroke-linejoin="round"/></g></g><g id="1j7qoswsx6"><g transform="translate(570 865)"><path d="M 126,31.5 L 63.5,62.9 L 1,31.5 L 63.5,0.3 Z" fill="rgb(0, 255, 0)" stroke="rgb(94, 92, 167)" stroke-width="1.5" vector-effect="non-scaling-stroke"/></g><g transform="translate(575.5184748427673, 875.1677215189874) rotate(0, 0, 0)" width="93" height="19"><text text-decoration="none" x="0" fill="#000000" font-weight="bold" font-size="11pt" font-family="Arial"  y="17">CONTAINS&#160;</text><text text-decoration="none" x="82" fill="#4b4b4b" font-size="10pt" font-family="noto_regular"  y="17"></text></g></g><g id="9gmgplre2p"><g><path d="M 620,830 L 620,865" fill="none" stroke="#5e5ca7" stroke-width="1.5" stroke-linecap="round" stroke-linejoin="round"/></g></g><g id="22imaqd7xl"><g><path d="M 620,995 L 620,915" fill="none" stroke="#5e5ca7" stroke-width="1.5" stroke-linecap="round" stroke-linejoin="round"/></g></g><g id="3a0hbftrub"><g transform="translate(570 995)"><path d="M 0,0 L 102,0 L 102,52 L 0,52 L 0,0 Z M 5,5 L 97,5 L 97,47 L 5,47 L 5,5 Z" fill="rgba(0,255,0,0)" stroke="#5e5ca7" stroke-width="1.5" stroke-linecap="round" stroke-linejoin="round"/></g><g transform="translate(598.5, 1011.5) rotate(0, 22.5, 9.5)" width="45" height="19"><text text-decoration="none" x="3.5" fill="rgb(0, 0, 0)" font-weight="bold" font-size="10pt" font-family="Arial"  y="17">ITEMS</text><text text-decoration="none" x="41.5" fill="#4b4b4b" font-size="10pt" font-family="noto_regular"  y="17"></text></g></g><g id="845yu2abku"><g transform="translate(765 780)"><path d="M 126,31.5 L 63.5,62.9 L 1,31.5 L 63.5,0.3 Z" fill="rgb(0, 255, 0)" stroke="rgb(94, 92, 167)" stroke-width="1.5" vector-effect="non-scaling-stroke"/></g><g transform="translate(772.622641509434, 790.1677215189874) rotate(0, 0, 0)" width="82" height="19"><text text-decoration="none" x="0" fill="#000000" font-weight="bold" font-size="11pt" font-family="Arial"  y="17">PREPARE&#160;</text><text text-decoration="none" x="68" fill="#4b4b4b" font-size="10pt" font-family="noto_regular"  y="17"></text></g></g><g id="8vcmy958qj"><g><path d="M 940,805 L 865,805" fill="none" stroke="#5e5ca7" stroke-width="1.5" stroke-linecap="round" stroke-linejoin="round"/></g></g><g id="26ow30dzyz"><g transform="translate(375 950)"><rect x="0" y="0" width="102" height="52" fill="rgba(255,241,0,1)" stroke="#5e5ca7" stroke-width="1.5" stroke-linecap="round" stroke-linejoin="round"/></g><g transform="translate(398, 966.5) rotate(0, 28, 9.5)" width="56" height="19"><text text-decoration="none" x="3" fill="rgb(0, 0, 0)" font-weight="bold" font-size="10pt" font-family="Arial"  y="17">WAITER</text><text text-decoration="none" x="53" fill="#4b4b4b" font-size="10pt" font-family="noto_regular"  y="17"></text></g></g><g id="2ok75ewie0"><g transform="translate(170 945)"><path d="M 138.475243806839,34.58823698759079 L 69.78712683916092,69.06667004823684 L 1.0990098714828491,34.58823698759079 L 69.78712683916092,0.329411780834198 Z" fill="rgb(0, 255, 0)" stroke="rgb(94, 92, 167)" stroke-width="1.5" vector-effect="non-scaling-stroke"/></g><g transform="translate(172.52869496855345, 949.5189873417721) rotate(0, 41.5, 0)" width="83" height="37"><text text-decoration="none" x="7.5" fill="#000000" font-weight="bold" font-size="11pt" font-family="Arial"  y="16">DELIVERS</text><text text-decoration="none" x="75.5" fill="#000000" font-weight="bold" font-size="11pt" font-family="Arial"  y="16"></text><text text-decoration="none" x="29" fill="#000000" font-weight="bold" font-size="11pt" font-family="Arial"  y="38">TO&#160;</text><text text-decoration="none" x="54" fill="#4b4b4b" font-size="10pt" font-family="noto_regular"  y="38"></text></g></g><g id="bqyt4ibk7t"><g><path d="M 375,975 L 280,975" fill="none" stroke="#5e5ca7" stroke-width="1.5" stroke-linecap="round" stroke-linejoin="round"/></g></g><g id="1eiofb6tbr"><g><path d="M 225,815 L 225,945" fill="none" stroke="#5e5ca7" stroke-width="1.5" stroke-linecap="round" stroke-linejoin="round"/></g></g><g id="27i2ci0sa5"><g transform="translate(465 205)"><ellipse cx="50.5" cy="25.5" rx="50.5" ry="25.5" fill="rgba(0,255,255,1)" stroke="#5e5ca7" stroke-width="1.5" stroke-linecap="round" stroke-linejoin="round"/></g><g transform="translate(494, 221) rotate(0, 21.5, 9.5)" width="43" height="19"><text text-decoration="none" x="2" fill="rgb(0, 0, 0)" font-weight="bold" font-size="10pt" font-family="Arial"  y="17">NAME</text><text text-decoration="none" x="41" fill="#4b4b4b" font-size="10pt" font-family="noto_regular"  y="17"></text></g></g><g id="1rug0v8qkv"><g transform="translate(600 205)"><ellipse cx="50.5" cy="25.5" rx="50.5" ry="25.5" fill="rgba(0,255,255,1)" stroke="#5e5ca7" stroke-width="1.5" stroke-linecap="round" stroke-linejoin="round"/></g><g transform="translate(600, 221) rotate(0, 50.5, 9.5)" width="101" height="19"><text text-decoration="none" x="5.5" fill="rgb(0, 0, 0)" font-weight="bold" font-size="10pt" font-family="Arial"  y="17">CONTACT&#160;</text><text text-decoration="none" x="70.5" fill="rgb(0, 0, 0)" font-weight="bold" font-size="10pt" font-family="Arial"  y="17">NO.</text><text text-decoration="none" x="95.5" fill="#4b4b4b" font-size="10pt" font-family="noto_regular"  y="17"></text></g></g><g id="1psxfyj12l"><g transform="translate(750 205)"><ellipse cx="50.5" cy="25.5" rx="50.5" ry="25.5" fill="rgba(0,255,255,1)" stroke="#5e5ca7" stroke-width="1.5" stroke-linecap="round" stroke-linejoin="round"/></g><g transform="translate(766.5, 221) rotate(0, 34, 9.5)" width="68" height="19"><text text-decoration="none" x="4.5" fill="rgb(0, 0, 0)" font-weight="bold" font-size="10pt" font-family="Arial"  y="17">ADDRESS</text><text text-decoration="none" x="63.5" fill="#4b4b4b" font-size="10pt" font-family="noto_regular"  y="17"></text></g></g><g id="2oroghpiwv"><g><path d="M 565,230 L 585,230 L 585,252.5 L 585,275 L 602.5,275 L 620,275 L 620,295" fill="none" stroke="#5e5ca7" stroke-width="1.5" stroke-linecap="round" stroke-linejoin="round"/></g></g><g id="3lp40r5vbw"><g><path d="M 635,255 L 635,275 L 627.5,275 L 620,275 L 620,295" fill="none" stroke="#5e5ca7" stroke-width="1.5" stroke-linecap="round" stroke-linejoin="round"/></g></g><g id="2geij1v6sp"><g><path d="M 750,230 L 717.5,230 L 717.5,253 L 717.5,276 L 668.75,276 L 620,276 L 620,295" fill="none" stroke="#5e5ca7" stroke-width="1.5" stroke-linecap="round" stroke-linejoin="round"/></g></g><g id="2gyyvg8xoy"><g transform="translate(445 460)"><ellipse cx="50.5" cy="25.5" rx="50.5" ry="25.5" fill="rgba(0,255,255,1)" stroke="#5e5ca7" stroke-width="1.5" stroke-linecap="round" stroke-linejoin="round"/></g><g transform="translate(474, 476) rotate(0, 21.5, 9.5)" width="43" height="19"><text text-decoration="none" x="2" fill="rgb(0, 0, 0)" font-weight="bold" font-size="10pt" font-family="Arial"  y="17">NAME</text><text text-decoration="none" x="41" fill="#4b4b4b" font-size="10pt" font-family="noto_regular"  y="17"></text></g></g><g id="d5dnb80gz4"><g transform="translate(690 465)"><ellipse cx="50.5" cy="25.5" rx="50.5" ry="25.5" fill="rgba(0,255,255,1)" stroke="#5e5ca7" stroke-width="1.5" stroke-linecap="round" stroke-linejoin="round"/></g><g transform="translate(716.5, 481) rotate(0, 24, 9.5)" width="48" height="19"><text text-decoration="none" x="3" fill="rgb(0, 0, 0)" font-weight="bold" font-size="10pt" font-family="Arial"  y="17">ID&#160;</text><text text-decoration="none" x="20" fill="rgb(0, 0, 0)" font-weight="bold" font-size="10pt" font-family="Arial"  y="17">NO.</text><text text-decoration="none" x="45" fill="#4b4b4b" font-size="10pt" font-family="noto_regular"  y="17"></text></g></g><g id="857hp7mxwj"><g transform="translate(445 530)"><ellipse cx="50.5" cy="25.5" rx="50.5" ry="25.5" fill="rgba(0,255,255,1)" stroke="#5e5ca7" stroke-width="1.5" stroke-linecap="round" stroke-linejoin="round"/></g><g transform="translate(445, 546) rotate(0, 50.5, 9.5)" width="101" height="19"><text text-decoration="none" x="5.5" fill="rgb(0, 0, 0)" font-weight="bold" font-size="10pt" font-family="Arial"  y="17">CONTACT&#160;</text><text text-decoration="none" x="70.5" fill="rgb(0, 0, 0)" font-weight="bold" font-size="10pt" font-family="Arial"  y="17">NO.</text><text text-decoration="none" x="95.5" fill="#4b4b4b" font-size="10pt" font-family="noto_regular"  y="17"></text></g></g><g id="2kz0t4qkft"><g><path d="M 545,555 L 570,555" fill="none" stroke="#5e5ca7" stroke-width="1.5" stroke-linecap="round" stroke-linejoin="round"/></g></g><g id="1vkz6zzses"><g><path d="M 525,505 L 525,555 L 570,555" fill="none" stroke="#5e5ca7" stroke-width="1.5" stroke-linecap="round" stroke-linejoin="round"/></g></g><g id="26r6b7vcdx"><g><path d="M 690,490 L 620,490 L 620,530" fill="none" stroke="#5e5ca7" stroke-width="1.5" stroke-linecap="round" stroke-linejoin="round"/></g></g><g id="88qeuxznvo"><g><path d="M 670,805 L 765,805" fill="none" stroke="#5e5ca7" stroke-width="1.5" stroke-linecap="round" stroke-linejoin="round"/></g></g><g id="2p2w0y5tdb"><g transform="translate(375 855)"><path d="M 126,31.5 L 63.5,62.9 L 1,31.5 L 63.5,0.3 Z" fill="rgb(0, 255, 0)" stroke="rgb(94, 92, 167)" stroke-width="1.5" vector-effect="non-scaling-stroke"/></g><g transform="translate(381.11399371069183, 865.1677215189874) rotate(0, 0, 0)" width="87" height="19"><text text-decoration="none" x="0" fill="#000000" font-weight="bold" font-size="11pt" font-family="Arial"  y="17">TAKEN&#160;</text><text text-decoration="none" x="53" fill="#000000" font-weight="bold" font-size="11pt" font-family="Arial"  y="17">BY&#160;</text><text text-decoration="none" x="76" fill="#4b4b4b" font-size="10pt" font-family="noto_regular"  y="17"></text></g></g><g id="1zhwvea08p"><g><path d="M 570,805 L 425,855" fill="none" stroke="#5e5ca7" stroke-width="1.5" stroke-linecap="round" stroke-linejoin="round"/></g></g><g id="4mdg6jcr14"><g><path d="M 425,950 L 425,905" fill="none" stroke="#5e5ca7" stroke-width="1.5" stroke-linecap="round" stroke-linejoin="round"/></g></g><g id="6dl94sbeal"><g transform="translate(1070 695)"><ellipse cx="50.5" cy="25.5" rx="50.5" ry="25.5" fill="rgba(0,255,255,1)" stroke="#5e5ca7" stroke-width="1.5" stroke-linecap="round" stroke-linejoin="round"/></g><g transform="translate(1099, 711) rotate(0, 21.5, 9.5)" width="43" height="19"><text text-decoration="none" x="2" fill="rgb(0, 0, 0)" font-weight="bold" font-size="10pt" font-family="Arial"  y="17">NAME</text><text text-decoration="none" x="41" fill="#4b4b4b" font-size="10pt" font-family="noto_regular"  y="17"></text></g></g><g id="2ezvp2m0n1"><g transform="translate(1075 815)"><ellipse cx="50.5" cy="25.5" rx="50.5" ry="25.5" fill="rgba(0,255,255,1)" stroke="#5e5ca7" stroke-width="1.5" stroke-linecap="round" stroke-linejoin="round"/></g><g transform="translate(1101.5, 831) rotate(0, 24, 9.5)" width="48" height="19"><text text-decoration="none" x="3" fill="rgb(0, 0, 0)" font-weight="bold" font-size="10pt" font-family="Arial"  y="17">ID&#160;</text><text text-decoration="none" x="20" fill="rgb(0, 0, 0)" font-weight="bold" font-size="10pt" font-family="Arial"  y="17">NO.</text><text text-decoration="none" x="45" fill="#4b4b4b" font-size="10pt" font-family="noto_regular"  y="17"></text></g></g><g id="1ag4l68cs4"><g><path d="M 1040,805 L 1057.5,805 L 1057.5,822.5 L 1057.5,840 L 1075,840" fill="none" stroke="#5e5ca7" stroke-width="1.5" stroke-linecap="round" stroke-linejoin="round"/></g></g><g id="1az3feh86w"><g><path d="M 1070,720 L 1030,720 L 1030,742.5 L 1030,765 L 1010,765 L 990,765 L 990,780" fill="none" stroke="#5e5ca7" stroke-width="1.5" stroke-linecap="round" stroke-linejoin="round"/></g></g><g id="aevfcf6p9h"><g transform="translate(665 705)"><ellipse cx="40.49955749511719" cy="21.999664306640625" rx="40.49955749511719" ry="21.999664306640625" fill="rgba(0,255,255,1)" stroke="#5e5ca7" stroke-width="1.5" stroke-linecap="round" stroke-linejoin="round"/></g><g transform="translate(679.4995574951172, 709.4996643066406) rotate(0, 26, 17.5)" width="52" height="35"><text text-decoration="none" x="3.5" fill="rgb(0, 0, 0)" font-weight="bold" font-size="10pt" font-family="Arial"  y="14">NO.&#160;</text><text text-decoration="none" x="31.5" fill="rgb(0, 0, 0)" font-weight="bold" font-size="10pt" font-family="Arial"  y="14">OF&#160;</text><text text-decoration="none" x="10.5" fill="rgb(0, 0, 0)" font-weight="bold" font-size="10pt" font-family="Arial"  y="36">ITEM</text><text text-decoration="none" x="41.5" fill="#4b4b4b" font-size="10pt" font-family="noto_regular"  y="36"></text></g></g><g id="6i4t8zmpy4"><g transform="translate(500 710)"><ellipse cx="40.49999997019768" cy="18.000000447034836" rx="40.49999997019768" ry="18.000000447034836" fill="rgba(0,255,255,1)" stroke="#5e5ca7" stroke-width="1.5" stroke-linecap="round" stroke-linejoin="round"/></g><g transform="translate(501.4999999701977, 718.5000004470348) rotate(0, 39, 9.5)" width="78" height="19"><text text-decoration="none" x="4.5" fill="rgb(0, 0, 0)" font-weight="bold" font-size="10pt" font-family="Arial"  y="17">ORDER&#160;</text><text text-decoration="none" x="52.5" fill="rgb(0, 0, 0)" font-weight="bold" font-size="10pt" font-family="Arial"  y="17">NO</text><text text-decoration="none" x="73.5" fill="#4b4b4b" font-size="10pt" font-family="noto_regular"  y="17"></text></g></g><g id="qe9caichf2"><g><path d="M 565,755 L 565,769.89990234375 L 577.5,769.89990234375 L 590,769.89990234375 L 590,775" fill="none" stroke="#5e5ca7" stroke-width="1.5" stroke-linecap="round" stroke-linejoin="round"/></g></g><g id="3elhs8lxwa"><g><path d="M 680,745 L 680,765 L 650,765 L 620,765 L 620,780" fill="none" stroke="#5e5ca7" stroke-width="1.5" stroke-linecap="round" stroke-linejoin="round"/></g></g><g id="1mw84msd05"><g transform="translate(695 925)"><ellipse cx="50.5" cy="25.5" rx="50.5" ry="25.5" fill="rgba(0,255,255,1)" stroke="#5e5ca7" stroke-width="1.5" stroke-linecap="round" stroke-linejoin="round"/></g><g transform="translate(711.5, 941) rotate(0, 34, 9.5)" width="68" height="19"><text text-decoration="none" x="4.5" fill="rgb(0, 0, 0)" font-weight="bold" font-size="10pt" font-family="Arial"  y="17">ITEM&#160;</text><text text-decoration="none" x="38.5" fill="rgb(0, 0, 0)" font-weight="bold" font-size="10pt" font-family="Arial"  y="17">NO.</text><text text-decoration="none" x="63.5" fill="#4b4b4b" font-size="10pt" font-family="noto_regular"  y="17"></text></g></g><g id="2kadmklwyt"><g transform="translate(640 1100)"><ellipse cx="50.5" cy="25.5" rx="50.5" ry="25.5" fill="rgba(0,255,255,1)" stroke="#5e5ca7" stroke-width="1.5" stroke-linecap="round" stroke-linejoin="round"/></g><g transform="translate(668.5, 1116) rotate(0, 22, 9.5)" width="44" height="19"><text text-decoration="none" x="4" fill="rgb(0, 0, 0)" font-weight="bold" font-size="10pt" font-family="Arial"  y="17">PRICE</text><text text-decoration="none" x="40" fill="#4b4b4b" font-size="10pt" font-family="noto_regular"  y="17"></text></g></g><g id="3uqxm5xowc"><g transform="translate(480 1095)"><ellipse cx="50.5" cy="25.5" rx="50.5" ry="25.5" fill="rgba(0,255,255,1)" stroke="#5e5ca7" stroke-width="1.5" stroke-linecap="round" stroke-linejoin="round"/></g><g transform="translate(493, 1111) rotate(0, 37.5, 9.5)" width="75" height="19"><text text-decoration="none" x="3.5" fill="rgb(0, 0, 0)" font-weight="bold" font-size="10pt" font-family="Arial"  y="17">QUANTITY</text><text text-decoration="none" x="71.5" fill="#4b4b4b" font-size="10pt" font-family="noto_regular"  y="17"></text></g></g><g id="2h75m4mcvd"><g><path d="M 560,1100 L 560,1070 L 572.5,1070 L 585,1070 L 585,1050" fill="none" stroke="#5e5ca7" stroke-width="1.5" stroke-linecap="round" stroke-linejoin="round"/></g></g><g id="f2zl3a1rbg"><g><path d="M 695,950 L 620,950 L 620,995" fill="none" stroke="#5e5ca7" stroke-width="1.5" stroke-linecap="round" stroke-linejoin="round"/></g></g><g id="4c8l452syu"><g><path d="M 660,1105 L 660,1072.5 L 640,1072.5 L 620,1072.5 L 620,1045" fill="none" stroke="#5e5ca7" stroke-width="1.5" stroke-linecap="round" stroke-linejoin="round"/></g></g><g id="24r7kkruqx"><g transform="translate(745 995)"><ellipse cx="50.5" cy="25.5" rx="50.5" ry="25.5" fill="rgba(0,255,255,1)" stroke="#5e5ca7" stroke-width="1.5" stroke-linecap="round" stroke-linejoin="round"/></g><g transform="translate(745.5, 1011) rotate(0, 50, 9.5)" width="100" height="19"><text text-decoration="none" x="7" fill="rgb(0, 0, 0)" font-weight="bold" font-size="10pt" font-family="Arial"  y="17">DESCRIPTION</text><text text-decoration="none" x="93" fill="#4b4b4b" font-size="10pt" font-family="noto_regular"  y="17"></text></g></g><g id="1x020ngs4y"><g><path d="M 745,1020 L 670,1020" fill="none" stroke="#5e5ca7" stroke-width="1.5" stroke-linecap="round" stroke-linejoin="round"/></g></g><g id="43p5rzdfew"><g transform="translate(410 1020)"><ellipse cx="50.5" cy="25.5" rx="50.5" ry="25.5" fill="rgba(0,255,255,1)" stroke="#5e5ca7" stroke-width="1.5" stroke-linecap="round" stroke-linejoin="round"/></g><g transform="translate(439, 1036) rotate(0, 21.5, 9.5)" width="43" height="19"><text text-decoration="none" x="2.5" fill="rgb(0, 0, 0)" font-weight="bold" font-size="10pt" font-family="Arial"  y="17">ID&#160;</text><text text-decoration="none" x="19.5" fill="rgb(0, 0, 0)" font-weight="bold" font-size="10pt" font-family="Arial"  y="17">NO</text><text text-decoration="none" x="40.5" fill="#4b4b4b" font-size="10pt" font-family="noto_regular"  y="17"></text></g></g><g id="8omkxpdw6v"><g transform="translate(260 1035)"><ellipse cx="50.5" cy="25.5" rx="50.5" ry="25.5" fill="rgba(0,255,255,1)" stroke="#5e5ca7" stroke-width="1.5" stroke-linecap="round" stroke-linejoin="round"/></g><g transform="translate(289, 1051) rotate(0, 21.5, 9.5)" width="43" height="19"><text text-decoration="none" x="2" fill="rgb(0, 0, 0)" font-weight="bold" font-size="10pt" font-family="Arial"  y="17">NAME</text><text text-decoration="none" x="41" fill="#4b4b4b" font-size="10pt" font-family="noto_regular"  y="17"></text></g></g><g id="1ejtqjg4js"><g><path d="M 430,1025 L 430,1010 L 427.5,1010 L 425,1010 L 425,1000" fill="none" stroke="#5e5ca7" stroke-width="1.5" stroke-linecap="round" stroke-linejoin="round"/></g></g><g id="22xvsu8vpl"><g><path d="M 360,1060 L 368,1060 L 368,1040.5 L 368,1021 L 396.5,1021 L 425,1021 L 425,1000" fill="none" stroke="#5e5ca7" stroke-width="1.5" stroke-linecap="round" stroke-linejoin="round"/></g></g><g id="1l5wl1grrs"><g transform="translate(115 665)"><ellipse cx="50.5" cy="25.5" rx="50.5" ry="25.5" fill="rgba(0,255,255,1)" stroke="#5e5ca7" stroke-width="1.5" stroke-linecap="round" stroke-linejoin="round"/></g><g transform="translate(131.5, 681) rotate(0, 34, 9.5)" width="68" height="19"><text text-decoration="none" x="4.5" fill="rgb(0, 0, 0)" font-weight="bold" font-size="10pt" font-family="Arial"  y="17">ADDRESS</text><text text-decoration="none" x="63.5" fill="#4b4b4b" font-size="10pt" font-family="noto_regular"  y="17"></text></g></g><g id="1qa8rfnpcc"><g transform="translate(260 665)"><ellipse cx="50.5" cy="25.5" rx="50.5" ry="25.5" fill="rgba(0,255,255,1)" stroke="#5e5ca7" stroke-width="1.5" stroke-linecap="round" stroke-linejoin="round"/></g><g transform="translate(289, 681) rotate(0, 21.5, 9.5)" width="43" height="19"><text text-decoration="none" x="2" fill="rgb(0, 0, 0)" font-weight="bold" font-size="10pt" font-family="Arial"  y="17">NAME</text><text text-decoration="none" x="41" fill="#4b4b4b" font-size="10pt" font-family="noto_regular"  y="17"></text></g></g><g id="5vq69fz3p7"><g transform="translate(30 760)"><ellipse cx="50.5" cy="25.5" rx="50.5" ry="25.5" fill="rgba(0,255,255,1)" stroke="#5e5ca7" stroke-width="1.5" stroke-linecap="round" stroke-linejoin="round"/></g><g transform="translate(30, 776) rotate(0, 50.5, 9.5)" width="101" height="19"><text text-decoration="none" x="5.5" fill="rgb(0, 0, 0)" font-weight="bold" font-size="10pt" font-family="Arial"  y="17">CONTACT&#160;</text><text text-decoration="none" x="70.5" fill="rgb(0, 0, 0)" font-weight="bold" font-size="10pt" font-family="Arial"  y="17">NO.</text><text text-decoration="none" x="95.5" fill="#4b4b4b" font-size="10pt" font-family="noto_regular"  y="17"></text></g></g><g id="5zx4purcnn"><g transform="translate(50 845)"><ellipse cx="50.5" cy="25.5" rx="50.5" ry="25.5" fill="rgba(0,255,255,1)" stroke="#5e5ca7" stroke-width="1.5" stroke-linecap="round" stroke-linejoin="round"/></g><g transform="translate(59.5, 853) rotate(0, 41, 17.5)" width="82" height="35"><text text-decoration="none" x="5.5" fill="rgb(0, 0, 0)" font-weight="bold" font-size="10pt" font-family="Arial"  y="14">CUSTOMER&#160;</text><text text-decoration="none" x="34" fill="rgb(0, 0, 0)" font-weight="bold" font-size="10pt" font-family="Arial"  y="36">ID</text><text text-decoration="none" x="48" fill="#4b4b4b" font-size="10pt" font-family="noto_regular"  y="36"></text></g></g><g id="ahzgd3juzq"><g><path d="M 130,785 L 152.5,785 L 152.5,787.5 L 152.5,790 L 175,790" fill="none" stroke="#5e5ca7" stroke-width="1.5" stroke-linecap="round" stroke-linejoin="round"/></g></g><g id="e6lnb6k89n"><g><path d="M 180,715 L 180,740 L 182.5,740 L 185,740 L 185,760" fill="none" stroke="#5e5ca7" stroke-width="1.5" stroke-linecap="round" stroke-linejoin="round"/></g></g><g id="2oa93qdonf"><g><path d="M 280,710 L 280,740 L 272.5,740 L 265,740 L 265,765" fill="none" stroke="#5e5ca7" stroke-width="1.5" stroke-linecap="round" stroke-linejoin="round"/></g></g><g id="1q5vnx36vo"><g><path d="M 150,870 L 225,870 L 225,815" fill="none" stroke="#5e5ca7" stroke-width="1.5" stroke-linecap="round" stroke-linejoin="round"/></g></g><g id="4sig0wa01y"><g transform="translate(570 995)"><path d="M 0,0 L 102,0 L 102,52 L 0,52 L 0,0 Z M 5,5 L 97,5 L 97,47 L 5,47 L 5,5 Z" fill="rgba(255,241,0,1)" stroke="#5e5ca7" stroke-width="1.5" stroke-linecap="round" stroke-linejoin="round"/></g><g transform="translate(603, 1011.5) rotate(0, 18, 9.5)" width="36" height="19"><text text-decoration="none" x="2.5" fill="rgb(0, 0, 0)" font-weight="bold" font-size="10pt" font-family="Arial"  y="17">ITEM</text><text text-decoration="none" x="33.5" fill="#4b4b4b" font-size="10pt" font-family="noto_regular"  y="17"></text></g></g><g id="5ysoa87p3f"><g transform="translate(175 595)"><path d="M 126,31.5 L 63.5,62.9 L 1,31.5 L 63.5,0.3 Z" fill="rgb(0, 255, 0)" stroke="rgb(94, 92, 167)" stroke-width="1.5" vector-effect="non-scaling-stroke"/></g><g transform="translate(194.41391509433961, 605.1677215189874) rotate(0, 0, 0)" width="48" height="19"><text text-decoration="none" x="0" fill="#000000" font-weight="bold" font-size="11pt" font-family="Arial"  y="17">PAYS&#160;</text><text text-decoration="none" x="40" fill="#4b4b4b" font-size="10pt" font-family="noto_regular"  y="17"></text></g></g><g id="16p6oct3qg"><g><path d="M 225,765 L 225,645" fill="none" stroke="#5e5ca7" stroke-width="1.5" stroke-linecap="round" stroke-linejoin="round"/></g></g><g id="2jmk75162z"><g transform="translate(175 500)"><rect x="0" y="0" width="102" height="52" fill="rgba(255,241,0,1)" stroke="#5e5ca7" stroke-width="1.5" stroke-linecap="round" stroke-linejoin="round"/></g><g transform="translate(210.5, 516.5) rotate(0, 15.5, 9.5)" width="31" height="19"><text text-decoration="none" x="2" fill="rgb(0, 0, 0)" font-weight="bold" font-size="10pt" font-family="Arial"  y="17">BILL</text><text text-decoration="none" x="29" fill="#4b4b4b" font-size="10pt" font-family="noto_regular"  y="17"></text></g></g><g id="2ohkj2s25a"><g><path d="M 225,550 L 225,595" fill="none" stroke="#5e5ca7" stroke-width="1.5" stroke-linecap="round" stroke-linejoin="round"/></g></g><g id="1egg47qe0t"><g transform="translate(175 395)"><path d="M 126,31.5 L 63.5,62.9 L 1,31.5 L 63.5,0.3 Z" fill="rgb(0, 255, 0)" stroke="rgb(94, 92, 167)" stroke-width="1.5" vector-effect="non-scaling-stroke"/></g><g transform="translate(186.98977987421384, 405.1677215189873) rotate(0, 0, 0)" width="73" height="19"><text text-decoration="none" x="0" fill="#000000" font-weight="bold" font-size="11pt" font-family="Arial"  y="17">PAID&#160;</text><text text-decoration="none" x="39" fill="#000000" font-weight="bold" font-size="11pt" font-family="Arial"  y="17">TO&#160;</text><text text-decoration="none" x="64" fill="#4b4b4b" font-size="10pt" font-family="noto_regular"  y="17"></text></g></g><g id="2dobr0w3s5"><g><path d="M 225,500 L 225,445" fill="none" stroke="#5e5ca7" stroke-width="1.5" stroke-linecap="round" stroke-linejoin="round"/></g></g><g id="1q828po3c5"><g transform="translate(175 295)"><rect x="0" y="0" width="102" height="52" fill="rgba(255,241,0,1)" stroke="#5e5ca7" stroke-width="1.5" stroke-linecap="round" stroke-linejoin="round"/></g><g transform="translate(194, 311.5) rotate(0, 32, 9.5)" width="64" height="19"><text text-decoration="none" x="5" fill="rgb(0, 0, 0)" font-weight="bold" font-size="10pt" font-family="Arial"  y="17">CASHIER</text><text text-decoration="none" x="59" fill="#4b4b4b" font-size="10pt" font-family="noto_regular"  y="17"></text></g></g><g id="2lcotj67h2"><g><path d="M 225,345 L 225,395" fill="none" stroke="#5e5ca7" stroke-width="1.5" stroke-linecap="round" stroke-linejoin="round"/></g></g><g id="9wwxv5d3ze"><g transform="translate(365 295)"><path d="M 126,31.5 L 63.5,62.9 L 1,31.5 L 63.5,0.3 Z" fill="rgb(0, 255, 0)" stroke="rgb(94, 92, 167)" stroke-width="1.5" vector-effect="non-scaling-stroke"/></g><g transform="translate(387.7885220125786, 305.1677215189873) rotate(0, 0, 0)" width="41" height="19"><text text-decoration="none" x="0" fill="#000000" font-weight="bold" font-size="11pt" font-family="Arial"  y="17">HAS&#160;</text><text text-decoration="none" x="33" fill="#4b4b4b" font-size="10pt" font-family="noto_regular"  y="17"></text></g></g><g id="35klsp1pen"><g><path d="M 565,320 L 465,320" fill="none" stroke="#5e5ca7" stroke-width="1.5" stroke-linecap="round" stroke-linejoin="round"/></g></g><g id="bnghwi5wa4"><g><path d="M 275,320 L 365,320" fill="none" stroke="#5e5ca7" stroke-width="1.5" stroke-linecap="round" stroke-linejoin="round"/></g></g><g id="63p7xeac4f"><g transform="translate(110 215)"><ellipse cx="50.5" cy="25.5" rx="50.5" ry="25.5" fill="rgba(0,255,255,1)" stroke="#5e5ca7" stroke-width="1.5" stroke-linecap="round" stroke-linejoin="round"/></g><g transform="translate(136.5, 231) rotate(0, 24, 9.5)" width="48" height="19"><text text-decoration="none" x="3" fill="rgb(0, 0, 0)" font-weight="bold" font-size="10pt" font-family="Arial"  y="17">ID&#160;</text><text text-decoration="none" x="20" fill="rgb(0, 0, 0)" font-weight="bold" font-size="10pt" font-family="Arial"  y="17">NO.</text><text text-decoration="none" x="45" fill="#4b4b4b" font-size="10pt" font-family="noto_regular"  y="17"></text></g></g><g id="cwf8dvnvaq"><g transform="translate(275 215)"><ellipse cx="50.5" cy="25.5" rx="50.5" ry="25.5" fill="rgba(0,255,255,1)" stroke="#5e5ca7" stroke-width="1.5" stroke-linecap="round" stroke-linejoin="round"/></g><g transform="translate(304, 231) rotate(0, 21.5, 9.5)" width="43" height="19"><text text-decoration="none" x="2" fill="rgb(0, 0, 0)" font-weight="bold" font-size="10pt" font-family="Arial"  y="17">NAME</text><text text-decoration="none" x="41" fill="#4b4b4b" font-size="10pt" font-family="noto_regular"  y="17"></text></g></g><g id="1vv7y5i2v3"><g transform="translate(40 455)"><ellipse cx="50.5" cy="25.5" rx="50.5" ry="25.5" fill="rgba(0,255,255,1)" stroke="#5e5ca7" stroke-width="1.5" stroke-linecap="round" stroke-linejoin="round"/></g><g transform="translate(59, 471) rotate(0, 31.5, 9.5)" width="63" height="19"><text text-decoration="none" x="4" fill="rgb(0, 0, 0)" font-weight="bold" font-size="10pt" font-family="Arial"  y="17">BILL&#160;</text><text text-decoration="none" x="34" fill="rgb(0, 0, 0)" font-weight="bold" font-size="10pt" font-family="Arial"  y="17">NO.</text><text text-decoration="none" x="59" fill="#4b4b4b" font-size="10pt" font-family="noto_regular"  y="17"></text></g></g><g id="21zsxpv2tx"><g transform="translate(40 540)"><ellipse cx="50.5" cy="25.5" rx="50.5" ry="25.5" fill="rgba(0,255,255,1)" stroke="#5e5ca7" stroke-width="1.5" stroke-linecap="round" stroke-linejoin="round"/></g><g transform="translate(58, 556) rotate(0, 32.5, 9.5)" width="65" height="19"><text text-decoration="none" x="1.5" fill="rgb(0, 0, 0)" font-weight="bold" font-size="10pt" font-family="Arial"  y="17">Attribute</text><text text-decoration="none" x="63.5" fill="#4b4b4b" font-size="10pt" font-family="noto_regular"  y="17"></text></g></g><g id="9t5y2ma2qg"><g transform="translate(305 500)"><ellipse cx="50.5" cy="25.5" rx="50.5" ry="25.5" fill="rgba(0,255,255,1)" stroke="#5e5ca7" stroke-width="1.5" stroke-linecap="round" stroke-linejoin="round"/></g><g transform="translate(330, 508) rotate(0, 25.5, 17.5)" width="51" height="35"><text text-decoration="none" x="3" fill="rgb(0, 0, 0)" font-weight="bold" font-size="10pt" font-family="Arial"  y="14">ORDER&#160;</text><text text-decoration="none" x="3" fill="rgb(0, 0, 0)" font-weight="bold" font-size="10pt" font-family="Arial"  y="36">DETAIL</text><text text-decoration="none" x="48" fill="#4b4b4b" font-size="10pt" font-family="noto_regular"  y="36"></text></g></g><g id="2nc9aeb9kk"><g><path d="M 190,260 L 190,280 L 207.5,280 L 225,280 L 225,295" fill="none" stroke="#5e5ca7" stroke-width="1.5" stroke-linecap="round" stroke-linejoin="round"/></g></g><g id="1m193cppfl"><g><path d="M 295,260 L 295,280 L 280,280 L 265,280 L 265,290" fill="none" stroke="#5e5ca7" stroke-width="1.5" stroke-linecap="round" stroke-linejoin="round"/></g></g><g id="1t00fuo8k3"><g><path d="M 140,480 L 175,480 L 175,500" fill="none" stroke="#5e5ca7" stroke-width="1.5" stroke-linecap="round" stroke-linejoin="round"/></g></g><g id="2p3f0qegpd"><g><path d="M 140,565 L 157.5,565 L 157.5,545 L 157.5,525 L 175,525" fill="none" stroke="#5e5ca7" stroke-width="1.5" stroke-linecap="round" stroke-linejoin="round"/></g></g><g id="1um9ix6sx9"><g><path d="M 305,525 L 275,525" fill="none" stroke="#5e5ca7" stroke-width="1.5" stroke-linecap="round" stroke-linejoin="round"/></g></g><g id="1hserq5wlk"><g><path d="M 495,240 L 540,240" fill="none" stroke="#000000" stroke-width="1" stroke-linecap="round" stroke-linejoin="round"/></g></g><g id="1efjbum6gl"><g><path d="M 136,251 L 180,250" fill="none" stroke="#000000" stroke-width="1" stroke-linecap="round" stroke-linejoin="round"/></g></g><g id="bq4iekx52z"><g><path d="M 718,499 L 765,500" fill="none" stroke="#000000" stroke-width="1" stroke-linecap="round" stroke-linejoin="round"/></g></g><g id="2puexnznrp"><g><path d="M 57,488 L 57,488" fill="none" stroke="#000000" stroke-width="1" stroke-linecap="round" stroke-linejoin="round"/></g></g><g id="8oudxpseep"><g><path d="M 60,490 L 120,490" fill="none" stroke="#000000" stroke-width="1" stroke-linecap="round" stroke-linejoin="round"/></g></g><g id="2oymvc1av6"><g><path d="M 72.5,884 L 125,885" fill="none" stroke="#000000" stroke-width="1" stroke-linecap="round" stroke-linejoin="round"/></g></g><g id="1qolvxebx0"><g><path d="M 560,740 L 525,740" fill="none" stroke="#000000" stroke-width="1" stroke-linecap="round" stroke-linejoin="round"/></g></g><g id="abeidva376"><g><path d="M 440,1056 L 485,1055" fill="none" stroke="#000000" stroke-width="1" stroke-linecap="round" stroke-linejoin="round"/></g></g><g id="cpkc8hfm99"><g><path d="M 713,960 L 775,960" fill="none" stroke="#000000" stroke-width="1" stroke-linecap="round" stroke-linejoin="round"/></g></g><g id="9c3tbmkc1v"><g><path d="M 1101,848 L 1150,850" fill="none" stroke="#000000" stroke-width="1" stroke-linecap="round" stroke-linejoin="round"/></g></g></svg>